<mxfile host="Electron" modified="2023-05-07T09:49:32.676Z" agent="Mozilla/5.0 (Macintosh; Intel Mac OS X 10_15_7) AppleWebKit/537.36 (KHTML, like Gecko) draw.io/21.1.2 Chrome/106.0.5249.199 Electron/21.4.3 Safari/537.36" etag="UHCBYi_Ci8T5FEKdy-JP" version="21.1.2" type="device">
  <diagram name="Page-1" id="oypxQ4XIu0FFfXPe1J0q">
    <mxGraphModel dx="1908" dy="2410" grid="0" gridSize="10" guides="1" tooltips="1" connect="1" arrows="1" fold="1" page="1" pageScale="1" pageWidth="1920" pageHeight="1200" math="0" shadow="0">
      <root>
        <mxCell id="0" />
        <mxCell id="1" parent="0" />
        <mxCell id="calgERfjeMDnUKyduBk7-1" value="Passanger_User" style="swimlane;fontStyle=0;childLayout=stackLayout;horizontal=1;startSize=30;horizontalStack=0;resizeParent=1;resizeParentMax=0;resizeLast=0;collapsible=1;marginBottom=0;whiteSpace=wrap;html=1;verticalAlign=middle;labelBackgroundColor=none;fillColor=#F5AB50;strokeColor=#909090;fontColor=#1A1A1A;rounded=0;" parent="1" vertex="1">
          <mxGeometry x="430" y="-842" width="188.78" height="180" as="geometry">
            <mxRectangle x="280" y="350" width="100" height="30" as="alternateBounds" />
          </mxGeometry>
        </mxCell>
        <mxCell id="calgERfjeMDnUKyduBk7-2" value="&lt;b&gt;PK&amp;nbsp;&lt;/b&gt;passanger_user_id INTEGER NOT NULL" style="text;strokeColor=none;fillColor=none;align=left;verticalAlign=middle;spacingLeft=4;spacingRight=4;overflow=hidden;points=[[0,0.5],[1,0.5]];portConstraint=eastwest;rotatable=0;whiteSpace=wrap;html=1;labelBackgroundColor=none;fontColor=#1A1A1A;rounded=0;" parent="calgERfjeMDnUKyduBk7-1" vertex="1">
          <mxGeometry y="30" width="188.78" height="30" as="geometry" />
        </mxCell>
        <mxCell id="calgERfjeMDnUKyduBk7-24" value="&lt;b&gt;FK&amp;nbsp;&lt;/b&gt;passanger_id INTEGER" style="text;strokeColor=none;fillColor=none;align=left;verticalAlign=middle;spacingLeft=4;spacingRight=4;overflow=hidden;points=[[0,0.5],[1,0.5]];portConstraint=eastwest;rotatable=0;whiteSpace=wrap;html=1;labelBackgroundColor=none;fontColor=#1A1A1A;rounded=0;" parent="calgERfjeMDnUKyduBk7-1" vertex="1">
          <mxGeometry y="60" width="188.78" height="30" as="geometry" />
        </mxCell>
        <mxCell id="calgERfjeMDnUKyduBk7-3" value="user_name VARCHAR(25) NOT NULL" style="text;strokeColor=none;fillColor=none;align=left;verticalAlign=middle;spacingLeft=4;spacingRight=4;overflow=hidden;points=[[0,0.5],[1,0.5]];portConstraint=eastwest;rotatable=0;whiteSpace=wrap;html=1;labelBackgroundColor=none;fontColor=#1A1A1A;rounded=0;" parent="calgERfjeMDnUKyduBk7-1" vertex="1">
          <mxGeometry y="90" width="188.78" height="30" as="geometry" />
        </mxCell>
        <mxCell id="calgERfjeMDnUKyduBk7-10" value="password VARCHAR(25) NOT NULL" style="text;strokeColor=none;fillColor=none;align=left;verticalAlign=middle;spacingLeft=4;spacingRight=4;overflow=hidden;points=[[0,0.5],[1,0.5]];portConstraint=eastwest;rotatable=0;whiteSpace=wrap;html=1;labelBackgroundColor=none;fontColor=#1A1A1A;rounded=0;" parent="calgERfjeMDnUKyduBk7-1" vertex="1">
          <mxGeometry y="120" width="188.78" height="30" as="geometry" />
        </mxCell>
        <mxCell id="calgERfjeMDnUKyduBk7-117" value="&lt;b&gt;FK&lt;/b&gt; status_id INTEGER" style="text;strokeColor=none;fillColor=none;align=left;verticalAlign=middle;spacingLeft=4;spacingRight=4;overflow=hidden;points=[[0,0.5],[1,0.5]];portConstraint=eastwest;rotatable=0;whiteSpace=wrap;html=1;labelBackgroundColor=none;fontColor=#1A1A1A;rounded=0;" parent="calgERfjeMDnUKyduBk7-1" vertex="1">
          <mxGeometry y="150" width="188.78" height="30" as="geometry" />
        </mxCell>
        <mxCell id="calgERfjeMDnUKyduBk7-16" value="Passanger_Details" style="swimlane;fontStyle=0;childLayout=stackLayout;horizontal=1;startSize=30;horizontalStack=0;resizeParent=1;resizeParentMax=0;resizeLast=0;collapsible=1;marginBottom=0;whiteSpace=wrap;html=1;verticalAlign=middle;labelBackgroundColor=none;fillColor=#F5AB50;strokeColor=#909090;fontColor=#1A1A1A;rounded=0;" parent="1" vertex="1">
          <mxGeometry x="190" y="-512" width="208.78" height="270" as="geometry">
            <mxRectangle x="280" y="350" width="100" height="30" as="alternateBounds" />
          </mxGeometry>
        </mxCell>
        <mxCell id="calgERfjeMDnUKyduBk7-17" value="&lt;b&gt;PK&amp;nbsp;&lt;/b&gt;passanger_id INTEGER NOT NULL" style="text;strokeColor=none;fillColor=none;align=left;verticalAlign=middle;spacingLeft=4;spacingRight=4;overflow=hidden;points=[[0,0.5],[1,0.5]];portConstraint=eastwest;rotatable=0;whiteSpace=wrap;html=1;labelBackgroundColor=none;fontColor=#1A1A1A;rounded=0;" parent="calgERfjeMDnUKyduBk7-16" vertex="1">
          <mxGeometry y="30" width="208.78" height="30" as="geometry" />
        </mxCell>
        <mxCell id="calgERfjeMDnUKyduBk7-18" value="name VARCHAR(50) NOT NULL" style="text;strokeColor=none;fillColor=none;align=left;verticalAlign=middle;spacingLeft=4;spacingRight=4;overflow=hidden;points=[[0,0.5],[1,0.5]];portConstraint=eastwest;rotatable=0;whiteSpace=wrap;html=1;labelBackgroundColor=none;fontColor=#1A1A1A;rounded=0;" parent="calgERfjeMDnUKyduBk7-16" vertex="1">
          <mxGeometry y="60" width="208.78" height="30" as="geometry" />
        </mxCell>
        <mxCell id="calgERfjeMDnUKyduBk7-19" value="surname VARCHAR(50) NOT NULL" style="text;strokeColor=none;fillColor=none;align=left;verticalAlign=middle;spacingLeft=4;spacingRight=4;overflow=hidden;points=[[0,0.5],[1,0.5]];portConstraint=eastwest;rotatable=0;whiteSpace=wrap;html=1;labelBackgroundColor=none;fontColor=#1A1A1A;rounded=0;" parent="calgERfjeMDnUKyduBk7-16" vertex="1">
          <mxGeometry y="90" width="208.78" height="30" as="geometry" />
        </mxCell>
        <mxCell id="calgERfjeMDnUKyduBk7-23" value="age INTEGER" style="text;strokeColor=none;fillColor=none;align=left;verticalAlign=middle;spacingLeft=4;spacingRight=4;overflow=hidden;points=[[0,0.5],[1,0.5]];portConstraint=eastwest;rotatable=0;whiteSpace=wrap;html=1;labelBackgroundColor=none;fontColor=#1A1A1A;rounded=0;" parent="calgERfjeMDnUKyduBk7-16" vertex="1">
          <mxGeometry y="120" width="208.78" height="30" as="geometry" />
        </mxCell>
        <mxCell id="calgERfjeMDnUKyduBk7-27" value="gender BOOLEN" style="text;strokeColor=none;fillColor=none;align=left;verticalAlign=middle;spacingLeft=4;spacingRight=4;overflow=hidden;points=[[0,0.5],[1,0.5]];portConstraint=eastwest;rotatable=0;whiteSpace=wrap;html=1;labelBackgroundColor=none;fontColor=#1A1A1A;rounded=0;" parent="calgERfjeMDnUKyduBk7-16" vertex="1">
          <mxGeometry y="150" width="208.78" height="30" as="geometry" />
        </mxCell>
        <mxCell id="calgERfjeMDnUKyduBk7-22" value="birthday_date DATETIME" style="text;strokeColor=none;fillColor=none;align=left;verticalAlign=middle;spacingLeft=4;spacingRight=4;overflow=hidden;points=[[0,0.5],[1,0.5]];portConstraint=eastwest;rotatable=0;whiteSpace=wrap;html=1;labelBackgroundColor=none;fontColor=#1A1A1A;rounded=0;" parent="calgERfjeMDnUKyduBk7-16" vertex="1">
          <mxGeometry y="180" width="208.78" height="30" as="geometry" />
        </mxCell>
        <mxCell id="calgERfjeMDnUKyduBk7-21" value="&lt;b&gt;FK&amp;nbsp;&lt;/b&gt;phone_id INTEGER NOT NULL&lt;br&gt;&amp;nbsp;" style="text;strokeColor=none;fillColor=none;align=left;verticalAlign=middle;spacingLeft=4;spacingRight=4;overflow=hidden;points=[[0,0.5],[1,0.5]];portConstraint=eastwest;rotatable=0;whiteSpace=wrap;html=1;labelBackgroundColor=none;fontColor=#1A1A1A;rounded=0;" parent="calgERfjeMDnUKyduBk7-16" vertex="1">
          <mxGeometry y="210" width="208.78" height="30" as="geometry" />
        </mxCell>
        <mxCell id="calgERfjeMDnUKyduBk7-25" value="&lt;b&gt;FK&lt;/b&gt; email_id INTEGER NOT NULL" style="text;strokeColor=none;fillColor=none;align=left;verticalAlign=middle;spacingLeft=4;spacingRight=4;overflow=hidden;points=[[0,0.5],[1,0.5]];portConstraint=eastwest;rotatable=0;whiteSpace=wrap;html=1;labelBackgroundColor=none;fontColor=#1A1A1A;rounded=0;" parent="calgERfjeMDnUKyduBk7-16" vertex="1">
          <mxGeometry y="240" width="208.78" height="30" as="geometry" />
        </mxCell>
        <mxCell id="calgERfjeMDnUKyduBk7-28" value="" style="edgeStyle=entityRelationEdgeStyle;fontSize=12;html=1;endArrow=ERzeroToMany;startArrow=ERmandOne;rounded=0;exitX=1;exitY=0.5;exitDx=0;exitDy=0;entryX=0;entryY=0.5;entryDx=0;entryDy=0;labelBackgroundColor=none;fontColor=default;strokeColor=#182E3E;" parent="1" source="calgERfjeMDnUKyduBk7-17" target="calgERfjeMDnUKyduBk7-24" edge="1">
          <mxGeometry width="100" height="100" relative="1" as="geometry">
            <mxPoint x="286" y="128" as="sourcePoint" />
            <mxPoint x="386" y="28" as="targetPoint" />
          </mxGeometry>
        </mxCell>
        <mxCell id="calgERfjeMDnUKyduBk7-29" value="Driver_User" style="swimlane;fontStyle=0;childLayout=stackLayout;horizontal=1;startSize=30;horizontalStack=0;resizeParent=1;resizeParentMax=0;resizeLast=0;collapsible=1;marginBottom=0;whiteSpace=wrap;html=1;verticalAlign=middle;labelBackgroundColor=none;fillColor=#F5AB50;strokeColor=#909090;fontColor=#1A1A1A;rounded=0;" parent="1" vertex="1">
          <mxGeometry x="1030" y="-802" width="190" height="150" as="geometry">
            <mxRectangle x="280" y="350" width="100" height="30" as="alternateBounds" />
          </mxGeometry>
        </mxCell>
        <mxCell id="calgERfjeMDnUKyduBk7-30" value="&lt;b&gt;PK&amp;nbsp;&lt;/b&gt;driver_user_id INTEGER NOT NULL" style="text;strokeColor=none;fillColor=none;align=left;verticalAlign=middle;spacingLeft=4;spacingRight=4;overflow=hidden;points=[[0,0.5],[1,0.5]];portConstraint=eastwest;rotatable=0;whiteSpace=wrap;html=1;labelBackgroundColor=none;fontColor=#1A1A1A;rounded=0;" parent="calgERfjeMDnUKyduBk7-29" vertex="1">
          <mxGeometry y="30" width="190" height="30" as="geometry" />
        </mxCell>
        <mxCell id="calgERfjeMDnUKyduBk7-37" value="&lt;b&gt;FK&amp;nbsp;&lt;/b&gt;driver_id INTEGER NOT NULL" style="text;strokeColor=none;fillColor=none;align=left;verticalAlign=middle;spacingLeft=4;spacingRight=4;overflow=hidden;points=[[0,0.5],[1,0.5]];portConstraint=eastwest;rotatable=0;whiteSpace=wrap;html=1;labelBackgroundColor=none;fontColor=#1A1A1A;rounded=0;" parent="calgERfjeMDnUKyduBk7-29" vertex="1">
          <mxGeometry y="60" width="190" height="30" as="geometry" />
        </mxCell>
        <mxCell id="calgERfjeMDnUKyduBk7-36" value="user_name VARCHAR(25) NOT NULL" style="text;strokeColor=none;fillColor=none;align=left;verticalAlign=middle;spacingLeft=4;spacingRight=4;overflow=hidden;points=[[0,0.5],[1,0.5]];portConstraint=eastwest;rotatable=0;whiteSpace=wrap;html=1;labelBackgroundColor=none;fontColor=#1A1A1A;rounded=0;" parent="calgERfjeMDnUKyduBk7-29" vertex="1">
          <mxGeometry y="90" width="190" height="30" as="geometry" />
        </mxCell>
        <mxCell id="calgERfjeMDnUKyduBk7-35" value="password VARCHAR(25) NOT NULL" style="text;strokeColor=none;fillColor=none;align=left;verticalAlign=middle;spacingLeft=4;spacingRight=4;overflow=hidden;points=[[0,0.5],[1,0.5]];portConstraint=eastwest;rotatable=0;whiteSpace=wrap;html=1;labelBackgroundColor=none;fontColor=#1A1A1A;rounded=0;" parent="calgERfjeMDnUKyduBk7-29" vertex="1">
          <mxGeometry y="120" width="190" height="30" as="geometry" />
        </mxCell>
        <mxCell id="calgERfjeMDnUKyduBk7-38" value="Driver_Details" style="swimlane;fontStyle=0;childLayout=stackLayout;horizontal=1;startSize=30;horizontalStack=0;resizeParent=1;resizeParentMax=0;resizeLast=0;collapsible=1;marginBottom=0;whiteSpace=wrap;html=1;verticalAlign=middle;labelBackgroundColor=none;fillColor=#F5AB50;strokeColor=#909090;fontColor=#1A1A1A;rounded=0;" parent="1" vertex="1">
          <mxGeometry x="1270" y="-662" width="190" height="300" as="geometry">
            <mxRectangle x="280" y="350" width="100" height="30" as="alternateBounds" />
          </mxGeometry>
        </mxCell>
        <mxCell id="calgERfjeMDnUKyduBk7-39" value="&lt;b&gt;PK&amp;nbsp;&lt;/b&gt;driver_id INTEGER NOT NULL" style="text;strokeColor=none;fillColor=none;align=left;verticalAlign=middle;spacingLeft=4;spacingRight=4;overflow=hidden;points=[[0,0.5],[1,0.5]];portConstraint=eastwest;rotatable=0;whiteSpace=wrap;html=1;labelBackgroundColor=none;fontColor=#1A1A1A;rounded=0;" parent="calgERfjeMDnUKyduBk7-38" vertex="1">
          <mxGeometry y="30" width="190" height="30" as="geometry" />
        </mxCell>
        <mxCell id="calgERfjeMDnUKyduBk7-40" value="name VARCHAR(50) NOT NULL" style="text;strokeColor=none;fillColor=none;align=left;verticalAlign=middle;spacingLeft=4;spacingRight=4;overflow=hidden;points=[[0,0.5],[1,0.5]];portConstraint=eastwest;rotatable=0;whiteSpace=wrap;html=1;labelBackgroundColor=none;fontColor=#1A1A1A;rounded=0;" parent="calgERfjeMDnUKyduBk7-38" vertex="1">
          <mxGeometry y="60" width="190" height="30" as="geometry" />
        </mxCell>
        <mxCell id="calgERfjeMDnUKyduBk7-41" value="surname VARCHAR(50) NOT NULL" style="text;strokeColor=none;fillColor=none;align=left;verticalAlign=middle;spacingLeft=4;spacingRight=4;overflow=hidden;points=[[0,0.5],[1,0.5]];portConstraint=eastwest;rotatable=0;whiteSpace=wrap;html=1;labelBackgroundColor=none;fontColor=#1A1A1A;rounded=0;" parent="calgERfjeMDnUKyduBk7-38" vertex="1">
          <mxGeometry y="90" width="190" height="30" as="geometry" />
        </mxCell>
        <mxCell id="calgERfjeMDnUKyduBk7-42" value="age INTEGER" style="text;strokeColor=none;fillColor=none;align=left;verticalAlign=middle;spacingLeft=4;spacingRight=4;overflow=hidden;points=[[0,0.5],[1,0.5]];portConstraint=eastwest;rotatable=0;whiteSpace=wrap;html=1;labelBackgroundColor=none;fontColor=#1A1A1A;rounded=0;" parent="calgERfjeMDnUKyduBk7-38" vertex="1">
          <mxGeometry y="120" width="190" height="30" as="geometry" />
        </mxCell>
        <mxCell id="calgERfjeMDnUKyduBk7-43" value="gender BOOLEN" style="text;strokeColor=none;fillColor=none;align=left;verticalAlign=middle;spacingLeft=4;spacingRight=4;overflow=hidden;points=[[0,0.5],[1,0.5]];portConstraint=eastwest;rotatable=0;whiteSpace=wrap;html=1;labelBackgroundColor=none;fontColor=#1A1A1A;rounded=0;" parent="calgERfjeMDnUKyduBk7-38" vertex="1">
          <mxGeometry y="150" width="190" height="30" as="geometry" />
        </mxCell>
        <mxCell id="calgERfjeMDnUKyduBk7-44" value="birthday_date DATETIME" style="text;strokeColor=none;fillColor=none;align=left;verticalAlign=middle;spacingLeft=4;spacingRight=4;overflow=hidden;points=[[0,0.5],[1,0.5]];portConstraint=eastwest;rotatable=0;whiteSpace=wrap;html=1;labelBackgroundColor=none;fontColor=#1A1A1A;rounded=0;" parent="calgERfjeMDnUKyduBk7-38" vertex="1">
          <mxGeometry y="180" width="190" height="30" as="geometry" />
        </mxCell>
        <mxCell id="calgERfjeMDnUKyduBk7-45" value="phone_number INTEGER NOT NULL" style="text;strokeColor=none;fillColor=none;align=left;verticalAlign=middle;spacingLeft=4;spacingRight=4;overflow=hidden;points=[[0,0.5],[1,0.5]];portConstraint=eastwest;rotatable=0;whiteSpace=wrap;html=1;labelBackgroundColor=none;fontColor=#1A1A1A;rounded=0;" parent="calgERfjeMDnUKyduBk7-38" vertex="1">
          <mxGeometry y="210" width="190" height="30" as="geometry" />
        </mxCell>
        <mxCell id="calgERfjeMDnUKyduBk7-46" value="email VARCHAR(50) NOT NULL" style="text;strokeColor=none;fillColor=none;align=left;verticalAlign=middle;spacingLeft=4;spacingRight=4;overflow=hidden;points=[[0,0.5],[1,0.5]];portConstraint=eastwest;rotatable=0;whiteSpace=wrap;html=1;labelBackgroundColor=none;fontColor=#1A1A1A;rounded=0;" parent="calgERfjeMDnUKyduBk7-38" vertex="1">
          <mxGeometry y="240" width="190" height="30" as="geometry" />
        </mxCell>
        <mxCell id="calgERfjeMDnUKyduBk7-49" value="&lt;b&gt;FK&amp;nbsp;&lt;/b&gt;car_id INTEGER NOT NULL" style="text;strokeColor=none;fillColor=none;align=left;verticalAlign=middle;spacingLeft=4;spacingRight=4;overflow=hidden;points=[[0,0.5],[1,0.5]];portConstraint=eastwest;rotatable=0;whiteSpace=wrap;html=1;labelBackgroundColor=none;fontColor=#1A1A1A;rounded=0;" parent="calgERfjeMDnUKyduBk7-38" vertex="1">
          <mxGeometry y="270" width="190" height="30" as="geometry" />
        </mxCell>
        <mxCell id="calgERfjeMDnUKyduBk7-50" value="Cars" style="swimlane;fontStyle=0;childLayout=stackLayout;horizontal=1;startSize=30;horizontalStack=0;resizeParent=1;resizeParentMax=0;resizeLast=0;collapsible=1;marginBottom=0;whiteSpace=wrap;html=1;verticalAlign=middle;labelBackgroundColor=none;fillColor=#F5AB50;strokeColor=#909090;fontColor=#1A1A1A;rounded=0;" parent="1" vertex="1">
          <mxGeometry x="1010" y="-342" width="164.39" height="150" as="geometry">
            <mxRectangle x="280" y="350" width="100" height="30" as="alternateBounds" />
          </mxGeometry>
        </mxCell>
        <mxCell id="calgERfjeMDnUKyduBk7-51" value="&lt;b&gt;PK&amp;nbsp;&lt;/b&gt;car_id INTEGER NOT NULL" style="text;strokeColor=none;fillColor=none;align=left;verticalAlign=middle;spacingLeft=4;spacingRight=4;overflow=hidden;points=[[0,0.5],[1,0.5]];portConstraint=eastwest;rotatable=0;whiteSpace=wrap;html=1;labelBackgroundColor=none;fontColor=#1A1A1A;rounded=0;" parent="calgERfjeMDnUKyduBk7-50" vertex="1">
          <mxGeometry y="30" width="164.39" height="30" as="geometry" />
        </mxCell>
        <mxCell id="calgERfjeMDnUKyduBk7-55" value="&lt;b&gt;FK&amp;nbsp;&lt;/b&gt;license_plate_id INTEGER NOT NULL" style="text;strokeColor=none;fillColor=none;align=left;verticalAlign=middle;spacingLeft=4;spacingRight=4;overflow=hidden;points=[[0,0.5],[1,0.5]];portConstraint=eastwest;rotatable=0;whiteSpace=wrap;html=1;labelBackgroundColor=none;fontColor=#1A1A1A;rounded=0;" parent="calgERfjeMDnUKyduBk7-50" vertex="1">
          <mxGeometry y="60" width="164.39" height="30" as="geometry" />
        </mxCell>
        <mxCell id="calgERfjeMDnUKyduBk7-52" value="&lt;b&gt;FK&amp;nbsp;&lt;/b&gt;model_id INTEGER NOT NULL" style="text;strokeColor=none;fillColor=none;align=left;verticalAlign=middle;spacingLeft=4;spacingRight=4;overflow=hidden;points=[[0,0.5],[1,0.5]];portConstraint=eastwest;rotatable=0;whiteSpace=wrap;html=1;labelBackgroundColor=none;fontColor=#1A1A1A;rounded=0;" parent="calgERfjeMDnUKyduBk7-50" vertex="1">
          <mxGeometry y="90" width="164.39" height="30" as="geometry" />
        </mxCell>
        <mxCell id="calgERfjeMDnUKyduBk7-54" value="&lt;b&gt;FK&amp;nbsp;&lt;/b&gt;color_id INTEGER NOT NULL" style="text;strokeColor=none;fillColor=none;align=left;verticalAlign=middle;spacingLeft=4;spacingRight=4;overflow=hidden;points=[[0,0.5],[1,0.5]];portConstraint=eastwest;rotatable=0;whiteSpace=wrap;html=1;labelBackgroundColor=none;fontColor=#1A1A1A;rounded=0;" parent="calgERfjeMDnUKyduBk7-50" vertex="1">
          <mxGeometry y="120" width="164.39" height="30" as="geometry" />
        </mxCell>
        <mxCell id="calgERfjeMDnUKyduBk7-56" value="License_Plates" style="swimlane;fontStyle=0;childLayout=stackLayout;horizontal=1;startSize=30;horizontalStack=0;resizeParent=1;resizeParentMax=0;resizeLast=0;collapsible=1;marginBottom=0;whiteSpace=wrap;html=1;verticalAlign=middle;labelBackgroundColor=none;fillColor=#F5AB50;strokeColor=#909090;fontColor=#1A1A1A;rounded=0;" parent="1" vertex="1">
          <mxGeometry x="1280" y="-232" width="180" height="90" as="geometry">
            <mxRectangle x="280" y="350" width="100" height="30" as="alternateBounds" />
          </mxGeometry>
        </mxCell>
        <mxCell id="calgERfjeMDnUKyduBk7-57" value="&lt;b&gt;PK&amp;nbsp;&lt;/b&gt;license_plate_id INTEGER NOT NULL" style="text;strokeColor=none;fillColor=none;align=left;verticalAlign=middle;spacingLeft=4;spacingRight=4;overflow=hidden;points=[[0,0.5],[1,0.5]];portConstraint=eastwest;rotatable=0;whiteSpace=wrap;html=1;labelBackgroundColor=none;fontColor=#1A1A1A;rounded=0;" parent="calgERfjeMDnUKyduBk7-56" vertex="1">
          <mxGeometry y="30" width="180" height="30" as="geometry" />
        </mxCell>
        <mxCell id="calgERfjeMDnUKyduBk7-58" value="license_plate_number VARCHAR(8) NOT NULL" style="text;strokeColor=none;fillColor=none;align=left;verticalAlign=middle;spacingLeft=4;spacingRight=4;overflow=hidden;points=[[0,0.5],[1,0.5]];portConstraint=eastwest;rotatable=0;whiteSpace=wrap;html=1;labelBackgroundColor=none;fontColor=#1A1A1A;rounded=0;" parent="calgERfjeMDnUKyduBk7-56" vertex="1">
          <mxGeometry y="60" width="180" height="30" as="geometry" />
        </mxCell>
        <mxCell id="calgERfjeMDnUKyduBk7-61" value="Car_Models" style="swimlane;fontStyle=0;childLayout=stackLayout;horizontal=1;startSize=30;horizontalStack=0;resizeParent=1;resizeParentMax=0;resizeLast=0;collapsible=1;marginBottom=0;whiteSpace=wrap;html=1;verticalAlign=middle;labelBackgroundColor=none;fillColor=#F5AB50;strokeColor=#909090;fontColor=#1A1A1A;rounded=0;" parent="1" vertex="1">
          <mxGeometry x="1065.61" y="-97" width="194.39" height="90" as="geometry">
            <mxRectangle x="280" y="350" width="100" height="30" as="alternateBounds" />
          </mxGeometry>
        </mxCell>
        <mxCell id="calgERfjeMDnUKyduBk7-62" value="&lt;b&gt;PK&amp;nbsp;&lt;/b&gt;model_id INTEGER NOT NULL" style="text;strokeColor=none;fillColor=none;align=left;verticalAlign=middle;spacingLeft=4;spacingRight=4;overflow=hidden;points=[[0,0.5],[1,0.5]];portConstraint=eastwest;rotatable=0;whiteSpace=wrap;html=1;labelBackgroundColor=none;fontColor=#1A1A1A;rounded=0;" parent="calgERfjeMDnUKyduBk7-61" vertex="1">
          <mxGeometry y="30" width="194.39" height="30" as="geometry" />
        </mxCell>
        <mxCell id="calgERfjeMDnUKyduBk7-63" value="car_model VARCHAR(50) NOT NULL" style="text;strokeColor=none;fillColor=none;align=left;verticalAlign=middle;spacingLeft=4;spacingRight=4;overflow=hidden;points=[[0,0.5],[1,0.5]];portConstraint=eastwest;rotatable=0;whiteSpace=wrap;html=1;labelBackgroundColor=none;fontColor=#1A1A1A;rounded=0;" parent="calgERfjeMDnUKyduBk7-61" vertex="1">
          <mxGeometry y="60" width="194.39" height="30" as="geometry" />
        </mxCell>
        <mxCell id="calgERfjeMDnUKyduBk7-64" value="Car_Colors" style="swimlane;fontStyle=0;childLayout=stackLayout;horizontal=1;startSize=30;horizontalStack=0;resizeParent=1;resizeParentMax=0;resizeLast=0;collapsible=1;marginBottom=0;whiteSpace=wrap;html=1;verticalAlign=middle;labelBackgroundColor=none;fillColor=#F5AB50;strokeColor=#909090;fontColor=#1A1A1A;rounded=0;" parent="1" vertex="1">
          <mxGeometry x="800" y="-132" width="178.78" height="90" as="geometry">
            <mxRectangle x="280" y="350" width="100" height="30" as="alternateBounds" />
          </mxGeometry>
        </mxCell>
        <mxCell id="calgERfjeMDnUKyduBk7-66" value="&lt;b&gt;PK&amp;nbsp;&lt;/b&gt;color_id INTEGER NOT NULL" style="text;strokeColor=none;fillColor=none;align=left;verticalAlign=middle;spacingLeft=4;spacingRight=4;overflow=hidden;points=[[0,0.5],[1,0.5]];portConstraint=eastwest;rotatable=0;whiteSpace=wrap;html=1;labelBackgroundColor=none;fontColor=#1A1A1A;rounded=0;" parent="calgERfjeMDnUKyduBk7-64" vertex="1">
          <mxGeometry y="30" width="178.78" height="30" as="geometry" />
        </mxCell>
        <mxCell id="calgERfjeMDnUKyduBk7-68" value="color_name VARCHAR(15) NOT NULL" style="text;strokeColor=none;fillColor=none;align=left;verticalAlign=middle;spacingLeft=4;spacingRight=4;overflow=hidden;points=[[0,0.5],[1,0.5]];portConstraint=eastwest;rotatable=0;whiteSpace=wrap;html=1;labelBackgroundColor=none;fontColor=#1A1A1A;rounded=0;" parent="calgERfjeMDnUKyduBk7-64" vertex="1">
          <mxGeometry y="60" width="178.78" height="30" as="geometry" />
        </mxCell>
        <mxCell id="calgERfjeMDnUKyduBk7-69" value="" style="edgeStyle=entityRelationEdgeStyle;fontSize=12;html=1;endArrow=ERmandOne;startArrow=ERmandOne;rounded=0;entryX=0;entryY=0.5;entryDx=0;entryDy=0;exitX=1;exitY=0.5;exitDx=0;exitDy=0;labelBackgroundColor=none;fontColor=default;strokeColor=#182E3E;" parent="1" source="calgERfjeMDnUKyduBk7-55" target="calgERfjeMDnUKyduBk7-57" edge="1">
          <mxGeometry width="100" height="100" relative="1" as="geometry">
            <mxPoint x="1525" y="122" as="sourcePoint" />
            <mxPoint x="1656" y="28" as="targetPoint" />
          </mxGeometry>
        </mxCell>
        <mxCell id="calgERfjeMDnUKyduBk7-70" value="" style="edgeStyle=entityRelationEdgeStyle;fontSize=12;html=1;endArrow=ERzeroToMany;startArrow=ERmandOne;rounded=0;entryX=0.5;entryY=0;entryDx=0;entryDy=0;exitX=0.321;exitY=0.99;exitDx=0;exitDy=0;labelBackgroundColor=none;fontColor=default;strokeColor=#182E3E;exitPerimeter=0;" parent="1" source="calgERfjeMDnUKyduBk7-54" target="calgERfjeMDnUKyduBk7-61" edge="1">
          <mxGeometry width="100" height="100" relative="1" as="geometry">
            <mxPoint x="1536" y="278" as="sourcePoint" />
            <mxPoint x="1636" y="178" as="targetPoint" />
          </mxGeometry>
        </mxCell>
        <mxCell id="calgERfjeMDnUKyduBk7-71" value="" style="edgeStyle=entityRelationEdgeStyle;fontSize=12;html=1;endArrow=ERzeroToMany;startArrow=ERmandOne;rounded=0;labelBackgroundColor=none;fontColor=default;strokeColor=#182E3E;exitX=0;exitY=0.5;exitDx=0;exitDy=0;entryX=0.5;entryY=0;entryDx=0;entryDy=0;" parent="1" source="calgERfjeMDnUKyduBk7-55" target="calgERfjeMDnUKyduBk7-64" edge="1">
          <mxGeometry width="100" height="100" relative="1" as="geometry">
            <mxPoint x="1559" y="-147" as="sourcePoint" />
            <mxPoint x="1340" y="33" as="targetPoint" />
          </mxGeometry>
        </mxCell>
        <mxCell id="calgERfjeMDnUKyduBk7-72" value="" style="edgeStyle=entityRelationEdgeStyle;fontSize=12;html=1;endArrow=ERzeroToMany;startArrow=ERmandOne;rounded=0;exitX=-0.013;exitY=0.086;exitDx=0;exitDy=0;entryX=1;entryY=0.5;entryDx=0;entryDy=0;labelBackgroundColor=none;fontColor=default;strokeColor=#182E3E;exitPerimeter=0;" parent="1" source="calgERfjeMDnUKyduBk7-49" target="calgERfjeMDnUKyduBk7-51" edge="1">
          <mxGeometry width="100" height="100" relative="1" as="geometry">
            <mxPoint x="1286" y="218" as="sourcePoint" />
            <mxPoint x="1386" y="118" as="targetPoint" />
          </mxGeometry>
        </mxCell>
        <mxCell id="calgERfjeMDnUKyduBk7-73" value="" style="edgeStyle=entityRelationEdgeStyle;fontSize=12;html=1;endArrow=ERzeroToMany;startArrow=ERmandOne;rounded=0;exitX=0;exitY=0.5;exitDx=0;exitDy=0;entryX=1;entryY=0.5;entryDx=0;entryDy=0;labelBackgroundColor=none;fontColor=default;strokeColor=#182E3E;" parent="1" source="calgERfjeMDnUKyduBk7-39" target="calgERfjeMDnUKyduBk7-37" edge="1">
          <mxGeometry width="100" height="100" relative="1" as="geometry">
            <mxPoint x="696" y="208" as="sourcePoint" />
            <mxPoint x="796" y="108" as="targetPoint" />
          </mxGeometry>
        </mxCell>
        <mxCell id="calgERfjeMDnUKyduBk7-74" value="Ride" style="swimlane;fontStyle=0;childLayout=stackLayout;horizontal=1;startSize=30;horizontalStack=0;resizeParent=1;resizeParentMax=0;resizeLast=0;collapsible=1;marginBottom=0;whiteSpace=wrap;html=1;verticalAlign=middle;labelBackgroundColor=none;fillColor=#F5AB50;strokeColor=#909090;fontColor=#1A1A1A;rounded=0;" parent="1" vertex="1">
          <mxGeometry x="750" y="-932" width="180" height="150" as="geometry">
            <mxRectangle x="280" y="350" width="100" height="30" as="alternateBounds" />
          </mxGeometry>
        </mxCell>
        <mxCell id="calgERfjeMDnUKyduBk7-75" value="&lt;b&gt;PK&lt;/b&gt; ride_id INTEGER NOT NULL" style="text;strokeColor=none;fillColor=none;align=left;verticalAlign=middle;spacingLeft=4;spacingRight=4;overflow=hidden;points=[[0,0.5],[1,0.5]];portConstraint=eastwest;rotatable=0;whiteSpace=wrap;html=1;labelBackgroundColor=none;fontColor=#1A1A1A;rounded=0;" parent="calgERfjeMDnUKyduBk7-74" vertex="1">
          <mxGeometry y="30" width="180" height="30" as="geometry" />
        </mxCell>
        <mxCell id="calgERfjeMDnUKyduBk7-76" value="&lt;b&gt;FK&lt;/b&gt; ride_details_id INTEGER" style="text;strokeColor=none;fillColor=none;align=left;verticalAlign=middle;spacingLeft=4;spacingRight=4;overflow=hidden;points=[[0,0.5],[1,0.5]];portConstraint=eastwest;rotatable=0;whiteSpace=wrap;html=1;labelBackgroundColor=none;fontColor=#1A1A1A;rounded=0;" parent="calgERfjeMDnUKyduBk7-74" vertex="1">
          <mxGeometry y="60" width="180" height="30" as="geometry" />
        </mxCell>
        <mxCell id="calgERfjeMDnUKyduBk7-77" value="&lt;b&gt;FK&amp;nbsp;&lt;/b&gt;passanger_user_id INTEGER" style="text;strokeColor=none;fillColor=none;align=left;verticalAlign=middle;spacingLeft=4;spacingRight=4;overflow=hidden;points=[[0,0.5],[1,0.5]];portConstraint=eastwest;rotatable=0;whiteSpace=wrap;html=1;labelBackgroundColor=none;fontColor=#1A1A1A;rounded=0;" parent="calgERfjeMDnUKyduBk7-74" vertex="1">
          <mxGeometry y="90" width="180" height="30" as="geometry" />
        </mxCell>
        <mxCell id="calgERfjeMDnUKyduBk7-78" value="&lt;b&gt;FK&amp;nbsp;&lt;/b&gt;driver_user_id INTEGER" style="text;strokeColor=none;fillColor=none;align=left;verticalAlign=middle;spacingLeft=4;spacingRight=4;overflow=hidden;points=[[0,0.5],[1,0.5]];portConstraint=eastwest;rotatable=0;whiteSpace=wrap;html=1;labelBackgroundColor=none;fontColor=#1A1A1A;rounded=0;" parent="calgERfjeMDnUKyduBk7-74" vertex="1">
          <mxGeometry y="120" width="180" height="30" as="geometry" />
        </mxCell>
        <mxCell id="calgERfjeMDnUKyduBk7-79" value="Ride_Details" style="swimlane;fontStyle=0;childLayout=stackLayout;horizontal=1;startSize=30;horizontalStack=0;resizeParent=1;resizeParentMax=0;resizeLast=0;collapsible=1;marginBottom=0;whiteSpace=wrap;html=1;verticalAlign=middle;labelBackgroundColor=none;fillColor=#F5AB50;strokeColor=#909090;fontColor=#1A1A1A;rounded=0;" parent="1" vertex="1">
          <mxGeometry x="1040" y="-1102" width="190" height="210" as="geometry">
            <mxRectangle x="280" y="350" width="100" height="30" as="alternateBounds" />
          </mxGeometry>
        </mxCell>
        <mxCell id="calgERfjeMDnUKyduBk7-80" value="&lt;b&gt;PK&amp;nbsp;&lt;/b&gt;ride_details_id INTEGER NOT NULL" style="text;strokeColor=none;fillColor=none;align=left;verticalAlign=middle;spacingLeft=4;spacingRight=4;overflow=hidden;points=[[0,0.5],[1,0.5]];portConstraint=eastwest;rotatable=0;whiteSpace=wrap;html=1;labelBackgroundColor=none;fontColor=#1A1A1A;rounded=0;" parent="calgERfjeMDnUKyduBk7-79" vertex="1">
          <mxGeometry y="30" width="190" height="30" as="geometry" />
        </mxCell>
        <mxCell id="calgERfjeMDnUKyduBk7-88" value="ride_date DATETIME" style="text;strokeColor=none;fillColor=none;align=left;verticalAlign=middle;spacingLeft=4;spacingRight=4;overflow=hidden;points=[[0,0.5],[1,0.5]];portConstraint=eastwest;rotatable=0;whiteSpace=wrap;html=1;labelBackgroundColor=none;fontColor=#1A1A1A;rounded=0;" parent="calgERfjeMDnUKyduBk7-79" vertex="1">
          <mxGeometry y="60" width="190" height="30" as="geometry" />
        </mxCell>
        <mxCell id="calgERfjeMDnUKyduBk7-87" value="start_location VARCHAR(250)" style="text;strokeColor=none;fillColor=none;align=left;verticalAlign=middle;spacingLeft=4;spacingRight=4;overflow=hidden;points=[[0,0.5],[1,0.5]];portConstraint=eastwest;rotatable=0;whiteSpace=wrap;html=1;labelBackgroundColor=none;fontColor=#1A1A1A;rounded=0;" parent="calgERfjeMDnUKyduBk7-79" vertex="1">
          <mxGeometry y="90" width="190" height="30" as="geometry" />
        </mxCell>
        <mxCell id="calgERfjeMDnUKyduBk7-86" value="end_location VARCHAR(250)" style="text;strokeColor=none;fillColor=none;align=left;verticalAlign=middle;spacingLeft=4;spacingRight=4;overflow=hidden;points=[[0,0.5],[1,0.5]];portConstraint=eastwest;rotatable=0;whiteSpace=wrap;html=1;labelBackgroundColor=none;fontColor=#1A1A1A;rounded=0;" parent="calgERfjeMDnUKyduBk7-79" vertex="1">
          <mxGeometry y="120" width="190" height="30" as="geometry" />
        </mxCell>
        <mxCell id="calgERfjeMDnUKyduBk7-85" value="ride_status VARCHAR(250)" style="text;strokeColor=none;fillColor=none;align=left;verticalAlign=middle;spacingLeft=4;spacingRight=4;overflow=hidden;points=[[0,0.5],[1,0.5]];portConstraint=eastwest;rotatable=0;whiteSpace=wrap;html=1;labelBackgroundColor=none;fontColor=#1A1A1A;rounded=0;" parent="calgERfjeMDnUKyduBk7-79" vertex="1">
          <mxGeometry y="150" width="190" height="30" as="geometry" />
        </mxCell>
        <mxCell id="calgERfjeMDnUKyduBk7-84" value="fare_amount INTEGER NOT NULL" style="text;strokeColor=none;fillColor=none;align=left;verticalAlign=middle;spacingLeft=4;spacingRight=4;overflow=hidden;points=[[0,0.5],[1,0.5]];portConstraint=eastwest;rotatable=0;whiteSpace=wrap;html=1;labelBackgroundColor=none;fontColor=#1A1A1A;rounded=0;" parent="calgERfjeMDnUKyduBk7-79" vertex="1">
          <mxGeometry y="180" width="190" height="30" as="geometry" />
        </mxCell>
        <mxCell id="calgERfjeMDnUKyduBk7-89" value="Emails" style="swimlane;fontStyle=0;childLayout=stackLayout;horizontal=1;startSize=30;horizontalStack=0;resizeParent=1;resizeParentMax=0;resizeLast=0;collapsible=1;marginBottom=0;whiteSpace=wrap;html=1;verticalAlign=middle;labelBackgroundColor=none;fillColor=#F5AB50;strokeColor=#909090;fontColor=#1A1A1A;rounded=0;" parent="1" vertex="1">
          <mxGeometry x="550" y="-212" width="170" height="90" as="geometry">
            <mxRectangle x="280" y="350" width="100" height="30" as="alternateBounds" />
          </mxGeometry>
        </mxCell>
        <mxCell id="calgERfjeMDnUKyduBk7-90" value="&lt;b&gt;PK&lt;/b&gt; email_id INTEGER NOT NULL" style="text;strokeColor=none;fillColor=none;align=left;verticalAlign=middle;spacingLeft=4;spacingRight=4;overflow=hidden;points=[[0,0.5],[1,0.5]];portConstraint=eastwest;rotatable=0;whiteSpace=wrap;html=1;labelBackgroundColor=none;fontColor=#1A1A1A;rounded=0;" parent="calgERfjeMDnUKyduBk7-89" vertex="1">
          <mxGeometry y="30" width="170" height="30" as="geometry" />
        </mxCell>
        <mxCell id="calgERfjeMDnUKyduBk7-91" value="email VARCHAR(50)" style="text;strokeColor=none;fillColor=none;align=left;verticalAlign=middle;spacingLeft=4;spacingRight=4;overflow=hidden;points=[[0,0.5],[1,0.5]];portConstraint=eastwest;rotatable=0;whiteSpace=wrap;html=1;labelBackgroundColor=none;fontColor=#1A1A1A;rounded=0;" parent="calgERfjeMDnUKyduBk7-89" vertex="1">
          <mxGeometry y="60" width="170" height="30" as="geometry" />
        </mxCell>
        <mxCell id="calgERfjeMDnUKyduBk7-94" value="Phone_numbers" style="swimlane;fontStyle=0;childLayout=stackLayout;horizontal=1;startSize=30;horizontalStack=0;resizeParent=1;resizeParentMax=0;resizeLast=0;collapsible=1;marginBottom=0;whiteSpace=wrap;html=1;verticalAlign=middle;labelBackgroundColor=none;fillColor=#F5AB50;strokeColor=#909090;fontColor=#1A1A1A;rounded=0;" parent="1" vertex="1">
          <mxGeometry x="550" y="-352" width="190" height="90" as="geometry">
            <mxRectangle x="280" y="350" width="100" height="30" as="alternateBounds" />
          </mxGeometry>
        </mxCell>
        <mxCell id="calgERfjeMDnUKyduBk7-95" value="&lt;b&gt;PK&amp;nbsp;&lt;/b&gt;phone_id INTEGER NOT NULL" style="text;strokeColor=none;fillColor=none;align=left;verticalAlign=middle;spacingLeft=4;spacingRight=4;overflow=hidden;points=[[0,0.5],[1,0.5]];portConstraint=eastwest;rotatable=0;whiteSpace=wrap;html=1;labelBackgroundColor=none;fontColor=#1A1A1A;rounded=0;" parent="calgERfjeMDnUKyduBk7-94" vertex="1">
          <mxGeometry y="30" width="190" height="30" as="geometry" />
        </mxCell>
        <mxCell id="calgERfjeMDnUKyduBk7-96" value="phone_number INTEGER NOT NULL" style="text;strokeColor=none;fillColor=none;align=left;verticalAlign=middle;spacingLeft=4;spacingRight=4;overflow=hidden;points=[[0,0.5],[1,0.5]];portConstraint=eastwest;rotatable=0;whiteSpace=wrap;html=1;labelBackgroundColor=none;fontColor=#1A1A1A;rounded=0;" parent="calgERfjeMDnUKyduBk7-94" vertex="1">
          <mxGeometry y="60" width="190" height="30" as="geometry" />
        </mxCell>
        <mxCell id="calgERfjeMDnUKyduBk7-97" value="" style="edgeStyle=entityRelationEdgeStyle;fontSize=12;html=1;endArrow=ERzeroToMany;startArrow=ERmandOne;rounded=0;exitX=1;exitY=0.5;exitDx=0;exitDy=0;entryX=0;entryY=0.5;entryDx=0;entryDy=0;labelBackgroundColor=none;fontColor=default;strokeColor=#182E3E;" parent="1" source="calgERfjeMDnUKyduBk7-21" target="calgERfjeMDnUKyduBk7-95" edge="1">
          <mxGeometry width="100" height="100" relative="1" as="geometry">
            <mxPoint x="380" y="338" as="sourcePoint" />
            <mxPoint x="440" y="238" as="targetPoint" />
          </mxGeometry>
        </mxCell>
        <mxCell id="calgERfjeMDnUKyduBk7-99" value="" style="edgeStyle=entityRelationEdgeStyle;fontSize=12;html=1;endArrow=ERzeroToMany;startArrow=ERmandOne;rounded=0;exitX=1;exitY=0.5;exitDx=0;exitDy=0;entryX=0;entryY=0.5;entryDx=0;entryDy=0;labelBackgroundColor=none;fontColor=default;strokeColor=#182E3E;" parent="1" source="calgERfjeMDnUKyduBk7-25" target="calgERfjeMDnUKyduBk7-90" edge="1">
          <mxGeometry width="100" height="100" relative="1" as="geometry">
            <mxPoint x="210" y="253" as="sourcePoint" />
            <mxPoint x="189" y="423" as="targetPoint" />
          </mxGeometry>
        </mxCell>
        <mxCell id="calgERfjeMDnUKyduBk7-103" value="" style="edgeStyle=entityRelationEdgeStyle;fontSize=12;html=1;endArrow=ERzeroToMany;startArrow=ERmandOne;rounded=0;entryX=0;entryY=0.5;entryDx=0;entryDy=0;exitX=1;exitY=0.5;exitDx=0;exitDy=0;labelBackgroundColor=none;fontColor=default;strokeColor=#182E3E;" parent="1" source="calgERfjeMDnUKyduBk7-2" target="calgERfjeMDnUKyduBk7-77" edge="1">
          <mxGeometry width="100" height="100" relative="1" as="geometry">
            <mxPoint x="559" y="-37" as="sourcePoint" />
            <mxPoint x="681" y="-172" as="targetPoint" />
          </mxGeometry>
        </mxCell>
        <mxCell id="calgERfjeMDnUKyduBk7-104" value="" style="edgeStyle=entityRelationEdgeStyle;fontSize=12;html=1;endArrow=ERzeroToMany;startArrow=ERmandOne;rounded=0;exitX=-0.005;exitY=0.181;exitDx=0;exitDy=0;entryX=1;entryY=0.5;entryDx=0;entryDy=0;exitPerimeter=0;labelBackgroundColor=none;fontColor=default;strokeColor=#182E3E;" parent="1" source="calgERfjeMDnUKyduBk7-30" target="calgERfjeMDnUKyduBk7-77" edge="1">
          <mxGeometry width="100" height="100" relative="1" as="geometry">
            <mxPoint x="569" y="-27" as="sourcePoint" />
            <mxPoint x="630" y="-237" as="targetPoint" />
          </mxGeometry>
        </mxCell>
        <mxCell id="calgERfjeMDnUKyduBk7-105" value="" style="edgeStyle=entityRelationEdgeStyle;fontSize=12;html=1;endArrow=ERzeroToMany;startArrow=ERmandOne;rounded=0;entryX=1;entryY=0.5;entryDx=0;entryDy=0;exitX=0;exitY=0.5;exitDx=0;exitDy=0;labelBackgroundColor=none;fontColor=default;strokeColor=#182E3E;" parent="1" source="calgERfjeMDnUKyduBk7-80" target="calgERfjeMDnUKyduBk7-76" edge="1">
          <mxGeometry width="100" height="100" relative="1" as="geometry">
            <mxPoint x="920" y="-232" as="sourcePoint" />
            <mxPoint x="851.89" y="-422" as="targetPoint" />
          </mxGeometry>
        </mxCell>
        <mxCell id="calgERfjeMDnUKyduBk7-106" value="Feedback" style="swimlane;fontStyle=0;childLayout=stackLayout;horizontal=1;startSize=30;horizontalStack=0;resizeParent=1;resizeParentMax=0;resizeLast=0;collapsible=1;marginBottom=0;whiteSpace=wrap;html=1;verticalAlign=middle;labelBackgroundColor=none;fillColor=#F5AB50;strokeColor=#909090;fontColor=#1A1A1A;rounded=0;" parent="1" vertex="1">
          <mxGeometry x="760" y="-692" width="230" height="210" as="geometry">
            <mxRectangle x="280" y="350" width="100" height="30" as="alternateBounds" />
          </mxGeometry>
        </mxCell>
        <mxCell id="calgERfjeMDnUKyduBk7-107" value="&lt;b&gt;PK&amp;nbsp;&lt;/b&gt;feedback_id INTEGER NOT NULL" style="text;strokeColor=none;fillColor=none;align=left;verticalAlign=middle;spacingLeft=4;spacingRight=4;overflow=hidden;points=[[0,0.5],[1,0.5]];portConstraint=eastwest;rotatable=0;whiteSpace=wrap;html=1;labelBackgroundColor=none;fontColor=#1A1A1A;rounded=0;" parent="calgERfjeMDnUKyduBk7-106" vertex="1">
          <mxGeometry y="30" width="230" height="30" as="geometry" />
        </mxCell>
        <mxCell id="calgERfjeMDnUKyduBk7-108" value="&lt;b&gt;FK&amp;nbsp;&lt;/b&gt;passanger_user_id INTEGER NOT NULL" style="text;strokeColor=none;fillColor=none;align=left;verticalAlign=middle;spacingLeft=4;spacingRight=4;overflow=hidden;points=[[0,0.5],[1,0.5]];portConstraint=eastwest;rotatable=0;whiteSpace=wrap;html=1;labelBackgroundColor=none;fontColor=#1A1A1A;rounded=0;" parent="calgERfjeMDnUKyduBk7-106" vertex="1">
          <mxGeometry y="60" width="230" height="30" as="geometry" />
        </mxCell>
        <mxCell id="calgERfjeMDnUKyduBk7-109" value="&lt;b&gt;FK&amp;nbsp;&lt;/b&gt;driver_user_id INTEGER NOT NULL" style="text;strokeColor=none;fillColor=none;align=left;verticalAlign=middle;spacingLeft=4;spacingRight=4;overflow=hidden;points=[[0,0.5],[1,0.5]];portConstraint=eastwest;rotatable=0;whiteSpace=wrap;html=1;labelBackgroundColor=none;fontColor=#1A1A1A;rounded=0;" parent="calgERfjeMDnUKyduBk7-106" vertex="1">
          <mxGeometry y="90" width="230" height="30" as="geometry" />
        </mxCell>
        <mxCell id="calgERfjeMDnUKyduBk7-110" value="&lt;b&gt;FK&amp;nbsp;&lt;/b&gt;ride_id INTEGER NOT NULL" style="text;strokeColor=none;fillColor=none;align=left;verticalAlign=middle;spacingLeft=4;spacingRight=4;overflow=hidden;points=[[0,0.5],[1,0.5]];portConstraint=eastwest;rotatable=0;whiteSpace=wrap;html=1;labelBackgroundColor=none;fontColor=#1A1A1A;rounded=0;" parent="calgERfjeMDnUKyduBk7-106" vertex="1">
          <mxGeometry y="120" width="230" height="30" as="geometry" />
        </mxCell>
        <mxCell id="calgERfjeMDnUKyduBk7-116" value="subject VARCHAR(50) NOT NULL" style="text;strokeColor=none;fillColor=none;align=left;verticalAlign=middle;spacingLeft=4;spacingRight=4;overflow=hidden;points=[[0,0.5],[1,0.5]];portConstraint=eastwest;rotatable=0;whiteSpace=wrap;html=1;labelBackgroundColor=none;fontColor=#1A1A1A;rounded=0;" parent="calgERfjeMDnUKyduBk7-106" vertex="1">
          <mxGeometry y="150" width="230" height="30" as="geometry" />
        </mxCell>
        <mxCell id="calgERfjeMDnUKyduBk7-115" value="message VARCHAR(500) NOT NULL" style="text;strokeColor=none;fillColor=none;align=left;verticalAlign=middle;spacingLeft=4;spacingRight=4;overflow=hidden;points=[[0,0.5],[1,0.5]];portConstraint=eastwest;rotatable=0;whiteSpace=wrap;html=1;labelBackgroundColor=none;fontColor=#1A1A1A;rounded=0;" parent="calgERfjeMDnUKyduBk7-106" vertex="1">
          <mxGeometry y="180" width="230" height="30" as="geometry" />
        </mxCell>
        <mxCell id="calgERfjeMDnUKyduBk7-118" value="Status" style="swimlane;fontStyle=0;childLayout=stackLayout;horizontal=1;startSize=30;horizontalStack=0;resizeParent=1;resizeParentMax=0;resizeLast=0;collapsible=1;marginBottom=0;whiteSpace=wrap;html=1;verticalAlign=middle;labelBackgroundColor=none;fillColor=#F5AB50;strokeColor=#909090;fontColor=#1A1A1A;rounded=0;" parent="1" vertex="1">
          <mxGeometry x="730" y="-462" width="138.78" height="90" as="geometry">
            <mxRectangle x="280" y="350" width="100" height="30" as="alternateBounds" />
          </mxGeometry>
        </mxCell>
        <mxCell id="calgERfjeMDnUKyduBk7-119" value="&lt;b&gt;PK&amp;nbsp;&lt;/b&gt;status_id INTEGER NOT NULL" style="text;strokeColor=none;fillColor=none;align=left;verticalAlign=middle;spacingLeft=4;spacingRight=4;overflow=hidden;points=[[0,0.5],[1,0.5]];portConstraint=eastwest;rotatable=0;whiteSpace=wrap;html=1;labelBackgroundColor=none;fontColor=#1A1A1A;rounded=0;" parent="calgERfjeMDnUKyduBk7-118" vertex="1">
          <mxGeometry y="30" width="138.78" height="30" as="geometry" />
        </mxCell>
        <mxCell id="calgERfjeMDnUKyduBk7-120" value="status VARCHAR(250)" style="text;strokeColor=none;fillColor=none;align=left;verticalAlign=middle;spacingLeft=4;spacingRight=4;overflow=hidden;points=[[0,0.5],[1,0.5]];portConstraint=eastwest;rotatable=0;whiteSpace=wrap;html=1;labelBackgroundColor=none;fontColor=#1A1A1A;rounded=0;" parent="calgERfjeMDnUKyduBk7-118" vertex="1">
          <mxGeometry y="60" width="138.78" height="30" as="geometry" />
        </mxCell>
        <mxCell id="calgERfjeMDnUKyduBk7-121" value="" style="edgeStyle=entityRelationEdgeStyle;fontSize=12;html=1;endArrow=ERzeroToMany;startArrow=ERmandOne;rounded=0;entryX=1;entryY=0.5;entryDx=0;entryDy=0;exitX=0;exitY=0.5;exitDx=0;exitDy=0;labelBackgroundColor=none;fontColor=default;strokeColor=#182E3E;" parent="1" source="calgERfjeMDnUKyduBk7-119" target="calgERfjeMDnUKyduBk7-117" edge="1">
          <mxGeometry width="100" height="100" relative="1" as="geometry">
            <mxPoint x="903" y="343" as="sourcePoint" />
            <mxPoint x="660" y="388" as="targetPoint" />
          </mxGeometry>
        </mxCell>
        <mxCell id="calgERfjeMDnUKyduBk7-122" value="" style="edgeStyle=entityRelationEdgeStyle;fontSize=12;html=1;endArrow=ERzeroToMany;startArrow=ERmandOne;rounded=0;entryX=0;entryY=0.5;entryDx=0;entryDy=0;exitX=0.994;exitY=-0.012;exitDx=0;exitDy=0;exitPerimeter=0;labelBackgroundColor=none;fontColor=default;strokeColor=#182E3E;" parent="1" source="calgERfjeMDnUKyduBk7-24" target="calgERfjeMDnUKyduBk7-108" edge="1">
          <mxGeometry width="100" height="100" relative="1" as="geometry">
            <mxPoint x="560" y="-62" as="sourcePoint" />
            <mxPoint x="558.78" y="78" as="targetPoint" />
          </mxGeometry>
        </mxCell>
        <mxCell id="calgERfjeMDnUKyduBk7-125" value="" style="edgeStyle=entityRelationEdgeStyle;fontSize=12;html=1;endArrow=ERzeroToMany;startArrow=ERmandOne;rounded=0;entryX=1;entryY=0.5;entryDx=0;entryDy=0;exitX=0;exitY=0.5;exitDx=0;exitDy=0;labelBackgroundColor=none;fontColor=default;strokeColor=#182E3E;" parent="1" source="calgERfjeMDnUKyduBk7-30" target="calgERfjeMDnUKyduBk7-109" edge="1">
          <mxGeometry width="100" height="100" relative="1" as="geometry">
            <mxPoint x="804" y="-17" as="sourcePoint" />
            <mxPoint x="867" y="258" as="targetPoint" />
          </mxGeometry>
        </mxCell>
        <mxCell id="calgERfjeMDnUKyduBk7-136" value="Payment" style="swimlane;fontStyle=0;childLayout=stackLayout;horizontal=1;startSize=30;horizontalStack=0;resizeParent=1;resizeParentMax=0;resizeLast=0;collapsible=1;marginBottom=0;whiteSpace=wrap;html=1;verticalAlign=middle;labelBackgroundColor=none;fillColor=#F5AB50;strokeColor=#909090;fontColor=#1A1A1A;rounded=0;" parent="1" vertex="1">
          <mxGeometry x="490" y="-1102" width="220" height="150" as="geometry">
            <mxRectangle x="280" y="350" width="100" height="30" as="alternateBounds" />
          </mxGeometry>
        </mxCell>
        <mxCell id="calgERfjeMDnUKyduBk7-138" value="&lt;b&gt;PK&lt;/b&gt; payment_id INTEGER NOT NULL" style="text;strokeColor=none;fillColor=none;align=left;verticalAlign=middle;spacingLeft=4;spacingRight=4;overflow=hidden;points=[[0,0.5],[1,0.5]];portConstraint=eastwest;rotatable=0;whiteSpace=wrap;html=1;labelBackgroundColor=none;fontColor=#1A1A1A;rounded=0;" parent="calgERfjeMDnUKyduBk7-136" vertex="1">
          <mxGeometry y="30" width="220" height="30" as="geometry" />
        </mxCell>
        <mxCell id="calgERfjeMDnUKyduBk7-139" value="payment_date DATETIME" style="text;strokeColor=none;fillColor=none;align=left;verticalAlign=middle;spacingLeft=4;spacingRight=4;overflow=hidden;points=[[0,0.5],[1,0.5]];portConstraint=eastwest;rotatable=0;whiteSpace=wrap;html=1;labelBackgroundColor=none;fontColor=#1A1A1A;rounded=0;" parent="calgERfjeMDnUKyduBk7-136" vertex="1">
          <mxGeometry y="60" width="220" height="30" as="geometry" />
        </mxCell>
        <mxCell id="calgERfjeMDnUKyduBk7-140" value="payment_amount INTEGER NOT NULL" style="text;strokeColor=none;fillColor=none;align=left;verticalAlign=middle;spacingLeft=4;spacingRight=4;overflow=hidden;points=[[0,0.5],[1,0.5]];portConstraint=eastwest;rotatable=0;whiteSpace=wrap;html=1;labelBackgroundColor=none;fontColor=#1A1A1A;rounded=0;" parent="calgERfjeMDnUKyduBk7-136" vertex="1">
          <mxGeometry y="90" width="220" height="30" as="geometry" />
        </mxCell>
        <mxCell id="calgERfjeMDnUKyduBk7-141" value="&lt;b&gt;FK&lt;/b&gt; ride_id INTEGER&amp;nbsp;" style="text;strokeColor=none;fillColor=none;align=left;verticalAlign=middle;spacingLeft=4;spacingRight=4;overflow=hidden;points=[[0,0.5],[1,0.5]];portConstraint=eastwest;rotatable=0;whiteSpace=wrap;html=1;labelBackgroundColor=none;fontColor=#1A1A1A;rounded=0;" parent="calgERfjeMDnUKyduBk7-136" vertex="1">
          <mxGeometry y="120" width="220" height="30" as="geometry" />
        </mxCell>
        <mxCell id="calgERfjeMDnUKyduBk7-147" value="" style="edgeStyle=entityRelationEdgeStyle;fontSize=12;html=1;endArrow=ERmandOne;startArrow=ERmandOne;rounded=0;entryX=0;entryY=0.5;entryDx=0;entryDy=0;exitX=1;exitY=0.5;exitDx=0;exitDy=0;labelBackgroundColor=none;fontColor=default;strokeColor=#182E3E;" parent="1" source="calgERfjeMDnUKyduBk7-141" target="calgERfjeMDnUKyduBk7-75" edge="1">
          <mxGeometry width="100" height="100" relative="1" as="geometry">
            <mxPoint x="807.78" y="-992" as="sourcePoint" />
            <mxPoint x="908.78" y="-1142" as="targetPoint" />
          </mxGeometry>
        </mxCell>
        <mxCell id="0lNkIT1PubbAlvqNW0l--2" value="" style="edgeStyle=entityRelationEdgeStyle;fontSize=12;html=1;endArrow=ERzeroToMany;startArrow=ERmandOne;rounded=0;exitX=0.522;exitY=1.046;exitDx=0;exitDy=0;exitPerimeter=0;strokeColor=#182E3E;labelBackgroundColor=none;fontColor=default;" parent="1" source="calgERfjeMDnUKyduBk7-78" edge="1">
          <mxGeometry width="100" height="100" relative="1" as="geometry">
            <mxPoint x="790" y="-592" as="sourcePoint" />
            <mxPoint x="890" y="-692" as="targetPoint" />
          </mxGeometry>
        </mxCell>
      </root>
    </mxGraphModel>
  </diagram>
</mxfile>
